<svg viewBox="0 0 1440 320" xmlns="http://www.w3.org/2000/svg">
  <defs>
    <linearGradient id="grad" x1="0%" y1="0%" x2="100%" y2="0%">
      <stop offset="0%" style="stop-color:rgba(108,99,255,0.4);stop-opacity:1" />
      <stop offset="100%" style="stop-color:rgba(0,201,167,0.4);stop-opacity:1" />
    </linearGradient>
  </defs>
  <path fill="url(#grad)" d="M0,192L72,218.7C144,245,288,203,432,176C576,149,720,107,864,117.3C1008,128,1152,192,1296,218.7L1440,245L1440,320L1296,320C1152,320,1008,320,864,320C720,320,576,320,432,320C288,320,144,320,72,320L0,320Z"></path>
  <path fill="rgba(255,255,255,0.1)" d="M0,288L72,272C144,256,288,224,432,208C576,192,720,192,864,197.3C1008,203,1152,213,1296,202.7L1440,192L1440,320L1296,320C1152,320,1008,320,864,320C720,320,576,320,432,320C288,320,144,320,72,320L0,320Z"></path>
</svg>
