</svg>
<svg width="500" height="467" viewBox="0 0 500 467" fill="none" xmlns="http://www.w3.org/2000/svg">
<path d="M38.0778 372.679V364.179C40.0778 353.283 43.0778 343.179 43.5778 338.179C43.9778 334.179 49.7445 308.179 52.5778 295.679L92.0778 167.679C100.578 139.178 110.578 110.178 118.578 87.1787C124.078 92.6785 134.578 156.678 136.578 178.178C139.078 191.178 141.578 219.678 149.078 242.179C154.374 254.164 162.078 256.628 167.578 257.178C177.578 258.178 180.578 249.678 183.078 241.678C184.53 237.65 187.578 231.679 187.578 231.679C203.078 201.679 203.578 212.179 248.578 141.179C284.578 84.3787 327.911 37.8454 345.078 21.6787C343.078 32.6787 338.911 51.1785 335.578 61.1785C331.578 73.1785 308.744 140.012 296.078 177.679C274.578 239.845 230.378 368.079 225.578 383.679C220.778 399.279 213.245 404.512 210.078 405.179C200.078 407.345 175.178 414.079 155.578 423.679C131.078 435.679 139.578 446.679 149.078 458.179C158.578 469.679 172.078 467.679 180.078 462.679C188.078 457.679 239.078 434.179 296.078 420.179C321.545 413.924 357.294 408.224 390.078 406.178C432.078 401.178 466.716 405.625 473.078 406.178C480.078 406.787 490.578 415.678 497.578 400.678C503.578 376.678 491.578 375.346 487.578 373.679C481.578 371.178 469.078 370.678 455.578 370.179C438.578 369.55 380.61 372.751 334.078 379.678C302.395 384.395 276.034 389.963 271.578 391.179C262.669 393.609 264.904 388.178 266.078 383.679C269.078 372.178 294.4 283.112 311.078 227.678C337.57 139.624 363.85 57.4631 365.078 49.1786C365.078 49.1786 370.658 25.6785 367.078 16.1785C362.932 5.17835 345.091 -7.9989 328.078 6.17863C297.078 29.1787 247.578 93.6787 215.578 136.179C190.825 171.042 173.557 199.524 172.078 198.679C170.118 197.559 165.725 164.173 160.078 130.179C155.64 103.463 150.098 76.18 146.578 65.1787C139.858 44.1787 136.078 39.1787 126.578 27.6787C122.078 23.6787 115.198 19.2904 104.078 19.6787C93.7073 20.0409 84.0778 23.6293 84.0778 29.1787C92.5778 34.6787 89.3028 52.1787 89.0778 53.6787C87.5778 63.6787 84.8838 71.5372 83.5778 80.6787C78.4276 99.9807 73.287 120.211 69.5778 131.679C51.4112 187.845 14.0778 302.179 11.0778 311.679C7.98691 320.179 -0.922159 339.179 0.0778408 355.179C1.07784 371.179 16.0778 376.679 27.0778 376.679C35.8778 376.679 38.0778 374.012 38.0778 372.679Z" fill="currentColor"/>
</svg>
