<?xml version="1.0" encoding="utf-8"?>
<!-- Svg Vector Icons : http://www.onlinewebfonts.com/icon -->
<!DOCTYPE svg PUBLIC "-//W3C//DTD SVG 1.1//EN" "http://www.w3.org/Graphics/SVG/1.1/DTD/svg11.dtd">
<svg version="1.1" xmlns="http://www.w3.org/2000/svg" xmlns:xlink="http://www.w3.org/1999/xlink" x="0px" y="0px" viewBox="0 0 256 256" enable-background="new 0 0 256 256" xml:space="preserve">
<metadata> Svg Vector Icons : http://www.onlinewebfonts.com/icon </metadata>
<g><g><path fill="#000000" d="M154.3,128l86.2-86.2c7.3-7.3,7.3-19.1,0-26.3c-7.3-7.3-19.1-7.3-26.3,0L128,101.6L41.8,15.4c-7.3-7.3-19.1-7.3-26.3,0c-7.3,7.3-7.3,19.1,0,26.3l86.2,86.2l-86.2,86.2c-7.3,7.3-7.3,19.1,0,26.3c3.6,3.6,8.4,5.5,13.2,5.5c4.8,0,9.5-1.8,13.2-5.5l86.2-86.2l86.2,86.2c3.6,3.6,8.4,5.5,13.2,5.5c4.8,0,9.5-1.8,13.2-5.5c7.3-7.3,7.3-19.1,0-26.3L154.3,128z"/></g></g>
</svg>